<svg xmlns="http://www.w3.org/2000/svg" viewBox="487.1894273127753 33.839999999999996 1075.876651982379 1071.6" version="1.1" style="max-height: 500px" width="1075.876651982379" height="1071.6">
<path fill="#233F32" d="m0 0h2l14 64 10 46 12 55 8 38 10 45 1 3 12 3 15 4 21 7 20 9 17 9 11 7 16 11 9 7 7-4 30-23-5-5-11-9-18-13-22-13-22-11-27-11-31-9-11-3-2-4-5-25-3-16v-5l28 5 26 7 15 5 24 9 25 12 21 12 12 8 17 12 16 13 13 11 4-2 19-13 20-14 24-16 8-5-2 4-7 11-7 10-17 25-11 16-6 8 2 4 11 12 13 17 16 24 8 14 10 19 9 20 11 31 8 30 4 22-1 4-43-9-7-2-3-15-5-18-11-30-8-16-11-21-13-20-12-16-6-7v-2h-3l-2 5-10 13-12 16-1 4 8 11 10 15 9 16 8 16 8 20 6 18 5 21 14 4 24 5 32 7 62 13 102 22 22 5 1 2-53 12-126 27-33 7-45 10-6 25-7 21-12 27-11 19-13 19-5 6 1 4 11 16 13 18 4-2 10-13 13-18 14-24 13-27 10-28 7-24 1-8 4-2 40-8 7-1-1 10-6 28-8 27-10 26-12 25-9 17-7 11-10 15-8 11-9 11-12 14v3l11 17 22 33 6 10 8 12v2l-4-2-24-16-11-8-19-13-15-11-3 1-5 5-12 10-19 14-15 10-17 10-21 11-23 10-25 9-25 7-24 5h-7l1-9 6-29 2-10 2-2 27-7 26-9 24-11 21-11 21-14 16-12 10-8-5-5-11-8-14-11-5-4-4 2-14 10-17 11-18 10-23 10-24 8-21 5-2 1-7 36-14 66-22 103-11 50-2-1-12-54-12-55-9-44-6-28-14-67-1-6-29-8-15-5-21-9-16-8-18-11-17-12-4-3-5 1-18 14-15 11 5 5 17 13 14 10 15 9 23 12 21 9 27 9 24 6 2 5 5 25 3 16v4l-11-1-23-5-34-10-20-8-24-11-22-12-24-16-16-12-16-13-4-4-4 2-20 14-22 15-23 16-4 3-2-1 8-13 14-22 18-27 7-10 1-4-9-9-11-14-12-16-11-17-16-29-10-22-11-30-8-29-5-25v-4l8 1 42 9 1 1 3 14 9 30 11 26 8 16 9 16 14 21 10 13 6 7v2h3l2-5 12-16 10-14v-4l-10-13-13-21-11-21-10-25-6-20-4-17-167-36-82-18-7-2v-2l41-9 79-17 117-25 18-4 2-6 7-25 7-20 13-27 11-19 14-19 1-5-9-11-12-17-5-6-2-1-2 4-15 20-10 15-10 18-9 17-4 9-8 21-9 30-2 11-45 10h-6l2-15 8-32 8-26 9-22 12-25 15-25 11-16 9-12 10-12 7-8 2-4h-2l-22-32-26-39 1-2 12 9 21 14 17 12 11 7 10 7 5-1 13-12 16-12 14-10 19-12 24-13 18-8 26-10 20-6 26-6 18-3 1 2-9 44-3 5-25 6-24 8-26 11-19 10-16 10-14 10-16 12-6 5-1 2 5 2 5 4 13 10 10 7 5 3 13-10 21-14 28-14 19-8 24-7 17-3 2-13 10-46 8-37 13-60 18-83zm-17 294-18 2-28 6-18 6-21 9-20 11-17 12-11 9-12 11-15 15-11 14-10 15-8 13-8 16-6 14-5 15-5 20-4 27v38l4 27 6 23 7 19h2l9-11 9-10 10-15 10-18 14-29 5-11 4 5 12 17 12 13 11 11 14 9 13 6 12 2h10l13-4 9-7 8-11 5-11 5-19 1-9v-27l-2-18-6-28-4-10-1 4v55l-3 23-4 17-5 13-6 8-5 4-6 2h-16l-9-3-11-7-12-11-9-9-10-13-8-13-6-13-2-7v-13l4-10 9-14 11-13 7-8 9-9 13-10 10-7 14-7 15-5 23-4h36l25 5 17 6 14 7 10 8 8 11 8 16 4 6 4 5 9 6 14 5 42 12 24 7 10 5 4 8v10l-4 16-9 20-7 16-7 11-8 7-15 9-15 5-21 3-40 1-17 4-13 7-11 11-8 16-4 12-1 5v17l9 52 4 42 12-1 29-6 21-7 13-5 23-13 13-8 17-13 12-11 15-15 11-14 10-14 10-17 11-23 8-24 4-16 4-30v-33l-3-24-4-19-6-19-6-15-8-16-9-16-10-14-11-14-25-25-17-13-15-10-20-11-19-8-22-7-30-6-13-1z" transform="translate(1023,37)"/>
</svg>